<svg xmlns="http://www.w3.org/2000/svg" width="280" height="250" viewBox="0 0 280 250"><g stroke-width="1.607"><path fill="#ffbb26" stroke="#000" stroke-width="1.7" d="M26.23 121.894s-2.745-29.687 3.167-47.892c4.08-12.564 10.385-22.87 20.582-31.269 15.925-13.117 40.526-16.582 57.787-8.707-15.118.791-35.348 5.894-46.31 15.04-8.4 7.01-14.961 16.862-18.206 27.31-5.517 17.768-2.77 46.31-2.77 46.31z"/><path d="M37.004 73.356c-5.104 15.402-5.106 32.395-4.596 46.99l1.895-.075c-.508-14.535-.388-31.283 4.521-46.318 4.91-15.035 14.529-28.347 33.291-36.276-22.395 5.038-32.48 27.738-35.111 35.679"/><g fill="#ffbb26" stroke="#000"><path stroke-width="1.7" d="M26.12 110.726h13.618v30.539H26.12z"/><g stroke-width=".624"><path d="M281.696 343.786c-2.868-2.923-3.084-.71-8.822-9.196 0 0-2.508.843-3.813.897a5.4 5.4 0 0 1-2.018-.299c-1.179-.424-3.215-1.943-3.215-1.943l-.523-4.935s-1.037-.182-1.346-.672c-.266-.422-.269-1.076 0-1.496.384-.6.98-.744 1.72-.972 1.381-.424 2.926-.394 4.335-.074 1.25.283 2.222.945 3.44 1.345 3.748 1.232 11.662 2.019 11.662 2.019z" transform="matrix(2.8536 0 0 2.5996 -723.246 -725.359)"/><path d="M224.087 211.049s1.923.021 2.841-.075c.667-.07 1.228-.456 1.944-.15.426.183.822 1.122.822 1.122s-.645.859-1.121 1.046c-1.322.521-3.15.633-4.336-.15-.317-.208-.444-.666-.449-1.046-.003-.268.3-.747.3-.747z" transform="matrix(2.8536 0 0 2.5996 -614.11 -410.03)"/><path d="M224.013 209.18s1.922.021 2.84-.075c.668-.07 1.602-.606 2.318-.3.426.183.822 1.122.822 1.122s-.645.86-1.121 1.047c-1.322.52-3.524.782-4.71 0-.317-.21-.444-.667-.449-1.047-.003-.268.3-.747.3-.747z" transform="matrix(2.8536 0 0 2.5996 -614.11 -410.03)"/><path d="M262.258 328.385s1.922.022 2.84-.075c.668-.07 1.602-.605 2.318-.299.426.183.823 1.122.823 1.122s-.646.859-1.122 1.046c-1.321.521-3.524.782-4.71 0-.316-.209-.443-.667-.448-1.046-.003-.269.299-.748.299-.748z" transform="matrix(2.8536 0 0 2.5996 -723.246 -725.359)"/></g><path stroke-width="1.7" d="M43.163 114.717h9.217l4.424-2.968-4.404-3.027h-9.216l-9.993-2.48-9.993 2.48h-9.74l-4.405 3.027 4.424 2.968h9.741l9.973 2.86zm114.629-86.514c-1.136 0-2.27.03-3.402.074l1.044 61.255-9.102-40.811c-2.369.387-4.71.89-7.013 1.507l11.654 41.811-25.129-57.957a93 93 0 0 0-6.879 2.91l27.725 58.3-25.71-37.335a72 72 0 0 0-5.835 3.865l24.591 32.097-43.975-41.363a89 89 0 0 0-5.073 5.088l46.915 41.394-37.216-22.548a66 66 0 0 0-3.686 5.566l44.2 24.04 1.7-2.671.791.73 3.656-3.342 1.79-1.134v.09l3.925-1.463v.075l3.388-.806h3.387l3.477.806v-.075l3.924 1.463v-.09l1.79 1.134 3.657 3.343.79-.731 1.254 2.029-.895.328 1.88 4.223 1.074 4.134 50.646-9.103a63 63 0 0 0-1.284-6.401l-49.63 11.206 66.194-23.86a82 82 0 0 0-2.627-6.357l-59.21 23.383 38.424-20.891a66 66 0 0 0-3.67-5.58l-37.156 22.502 46.87-41.35a89 89 0 0 0-5.06-5.058l-43.944 41.364 24.531-32.127a72 72 0 0 0-5.804-3.865L171.58 91.666l-.627-.328 25.83-54.316a93 93 0 0 0-6.924-2.91l-23.725 54.704-.359-.194 10.685-38.35a72 72 0 0 0-7.059-1.537l-8.43 37.38 1.059-57.808a89 89 0 0 0-4.238-.104z"/><path stroke-width="1.7" d="M157.79 81.723c-19.756 0-36.012 14.6-36.012 32.805s16.24 32.89 36.012 32.89c19.77 0 36.102-14.67 36.102-32.89s-16.347-32.805-36.102-32.805zM31.4 216.295h219.684v-12.416H31.401Z"/></g><path d="M38.351 202.924c.16 2.345.963 6.09 1.89 7.163-3.572-.518-3.75-4.816-4.196-7.079zm6.653 0c.16 2.345.962 6.09 1.89 7.163-3.573-.518-3.75-4.816-4.196-7.079zm6.652 0c.16 2.345.963 6.09 1.89 7.163-3.572-.518-3.75-4.816-4.195-7.079zm6.653 0c.16 2.345.962 6.09 1.89 7.163-3.572-.518-3.75-4.816-4.196-7.079zm6.653 0c.16 2.345.962 6.09 1.89 7.163-3.573-.518-3.75-4.816-4.196-7.079zm6.652 0c.16 2.345.963 6.09 1.89 7.163-3.572-.518-3.75-4.816-4.196-7.079zm6.653 0c.16 2.345.962 6.09 1.89 7.163-3.573-.518-3.75-4.816-4.196-7.079zm6.652 0c.16 2.345.963 6.09 1.89 7.163-3.572-.518-3.75-4.816-4.195-7.079zm6.653 0c.16 2.345.962 6.09 1.89 7.163-3.573-.518-3.75-4.816-4.196-7.079zm6.653 0c.16 2.345.962 6.09 1.89 7.163-3.573-.518-3.75-4.816-4.196-7.079zm6.652 0c.16 2.345.963 6.09 1.89 7.163-3.572-.518-3.75-4.816-4.196-7.079zm6.653 0c.16 2.345.962 6.09 1.89 7.163-3.573-.518-3.75-4.816-4.196-7.079zm6.652 0c.16 2.345.963 6.09 1.89 7.163-3.572-.518-3.75-4.816-4.195-7.079zm6.653 0c.16 2.345.962 6.09 1.89 7.163-3.573-.518-3.75-4.816-4.196-7.079zm6.653 0c.16 2.345.962 6.09 1.89 7.163-3.573-.518-3.75-4.816-4.196-7.079zm6.652 0c.16 2.345.963 6.09 1.89 7.163-3.572-.518-3.75-4.816-4.196-7.079zm6.653 0c.16 2.345.962 6.09 1.89 7.163-3.573-.518-3.75-4.816-4.196-7.079zm6.652 0c.16 2.345.963 6.09 1.89 7.163-3.572-.518-3.75-4.816-4.195-7.079zm6.653 0c.16 2.345.962 6.09 1.89 7.163-3.573-.518-3.75-4.816-4.196-7.079zm6.653 0c.16 2.345.962 6.09 1.89 7.163-3.573-.518-3.75-4.816-4.196-7.079zm6.652 0c.16 2.345.963 6.09 1.89 7.163-3.572-.518-3.75-4.816-4.196-7.079zm6.653 0c.16 2.345.962 6.09 1.89 7.163-3.573-.518-3.75-4.816-4.196-7.079zm6.652 0c.16 2.345.963 6.09 1.89 7.163-3.572-.518-3.75-4.816-4.195-7.079zm6.653 0c.16 2.345.962 6.09 1.89 7.163-3.573-.518-3.75-4.816-4.196-7.079zm6.652 0c.16 2.345.963 6.09 1.89 7.163-3.572-.518-3.75-4.816-4.195-7.079zm6.653 0c.16 2.345.963 6.09 1.89 7.163-3.572-.518-3.75-4.816-4.196-7.079zm6.653 0c.16 2.345.962 6.09 1.89 7.163-3.573-.518-3.75-4.816-4.196-7.079zm6.652 0c.16 2.345.963 6.09 1.89 7.163-3.572-.518-3.75-4.816-4.195-7.079zm6.653 0c.16 2.345.962 6.09 1.89 7.163-3.573-.518-3.75-4.816-4.196-7.079zm6.652 0c.16 2.345.963 6.09 1.89 7.163-3.572-.518-3.75-4.816-4.195-7.079zm6.653 0c.16 2.345.963 6.09 1.89 7.163-3.572-.518-3.75-4.816-4.196-7.079zm6.653 0c.16 2.345.962 6.09 1.89 7.163-3.573-.518-3.75-4.816-4.196-7.079z"/><g stroke-width=".624"><path fill="#ffbb26" stroke="#000" d="M272.208 225.551c-1.505 2.755.583 5.216-.551 7.323 0 0-2.413-.475-3.664-.535-.87-.042-2.15-.043-2.893.334-1.325.671-2.47 1.584-3.071 2.602-1.096 1.856.242 3.572 2.222 2.66 1.77 1.788 3.856.644 6.41-.334.523-.2 1.292.016 1.933.16.67.15 1.43.268 2.062 0 1.506-.639 2.526-2.52 3.48-5.54l1.484.683c.016-1.29-.507-2.275-1.19-3.168l1.77.653c.01-1.284-.56-2.225-1.144-2.933l1.704.691s-.142-.668-.17-1.658c-.018-.642.122-1.582.007-2.008-.197-.735-.46-1.028-.628-1.565-.135-.43-.302-1.318-.302-1.318-5.13-2.467-4.024-8.28-3.082-10.742l-9.768 7.395c-1.974 1.41.737 6.482 5.391 7.3z" transform="matrix(2.8536 0 0 2.5996 -609.877 -414.262)"/><path d="M167.464 159.4c-1.957-.722-4.875-2.32-5.517-5.16l2.12-4.426c-.926 4.994 2.425 8.645 3.397 9.587m-3.2 2.692c-1.957-.723-4.875-2.322-5.517-5.16l2.12-4.427c-.926 4.994 2.425 8.645 3.397 9.587m-2.69 3.173c-1.956-.723-4.874-2.322-5.516-5.16l2.12-4.427c-.926 4.994 2.425 8.645 3.397 9.587m-3.433 29.697s-4.212-.225-6.688.163c-1.639.257-3.254.846-4.637 1.787-1.584 1.077-3.493 2.455-4.013 4.55-.23.928.045 1.873.267 2.6.223.726.446 1.299.446 1.299l1.873-.731s-.264-.46-.446-1.056c-.183-.596-.26-1.375-.178-1.706.323-1.303 1.73-2.488 3.21-3.494 3.523-2.774 6.934-1.943 10.166-3.412m14.606-.734c1.485-1.998 4.017-4.282 4.902-7.058.884-2.777 1.195-5.696.198-8.054-1.907.824-5.802 14.564-5.1 15.112m10.702-22.106c-.495 2.829-5.11 2.748-7.108 2.034-2-.715-3.493-3.15-2.49-5.431.795 3.114 5.795 4.554 9.598 3.397m.739-6.952c-.495 2.83-5.11 2.748-7.109 2.034s-3.492-3.149-2.489-5.43c.795 3.113 5.794 4.553 9.598 3.396"/><path fill="#ffbb26" stroke="#000" d="M340.736 301.86c.299 1.489-.298 2.512-1.08 2.921-1.175.616-2.267.202-3.25-.719-1.277-1.196-2.141-2.79-3.281-3.843-1.445-1.336-3.187-1.693-4.687-1.594a5.63 5.63 0 0 0-3.813 1.844c-1.933 2.133-2.43 5.95-.406 9.09 1.906 2.958 7.638 5.058 9.812 6.845 1.953 1.605 2.814 2.665 3.188 3.846.373 1.181.519 2.68-.063 4.125-.699 1.737-2.363 2.484-4.846 2.537-3.3.07-6.412-2.99-9.598-3.504-5.964-.961-7.658 1.585-13.2 1.656-10.976.143-15.456-3.5-15.456-3.5l-11.9 15.124c-3.635 1.49-3.826 6.978 0 9.937-1.094.688-2.176 2.116-2.656 3.313-.603 1.505-1.097 2.44-1.844 3.53 0 0-2.405-.47-3.656-.53-.87-.042-2.162-.033-2.906.343-1.325.671-2.461 1.576-3.063 2.594-1.096 1.856.24 3.567 2.219 2.656 1.77 1.787 3.852.665 6.406-.312.524-.2 1.297.012 1.938.156.67.15 1.437.285 2.062 0 1.472-.67 2.137-2.39 3.188-3.594.495-.568 1.469-1.719 1.469-1.719l.968 1.344c.653-1.114.684-2.23.532-3.344l1.218 1.438c.645-1.11.595-2.222.438-3.125l1.156 1.438s.191-.626.656-1.5c.302-.567.889-1.324 1-1.75.192-.737.25-1.688.25-1.688.668.638 1.175.97 2.032.844.122-1.335.21-1.74.53-2.281 4.249-.225 8.203-.97 11.782-2.47 2.703-1.131 5.21-2.68 7.438-4.75.58-.54 1.048-.825 1.593-1.437.536-.601 2.756-.296 3.875.156.54.22 1.219 1.125 1.219 1.125.897 2.51 3.014 8.498 8.844 9.782-1.505 2.754.572 5.237-.563 7.344 0 0-2.405-.502-3.656-.563-.87-.042-2.131-.033-2.875.344-1.324.67-2.492 1.575-3.094 2.594-1.096 1.856.24 3.598 2.219 2.687 1.77 1.787 3.852.634 6.406-.344.524-.2 1.297.012 1.938.156.67.151 1.43.269 2.062 0 1.506-.638 2.546-2.511 3.5-5.53l1.469.656c.016-1.292-.504-2.264-1.187-3.157l1.78.656c.012-1.284-.572-2.23-1.155-2.937l1.718.688s-.16-.667-.187-1.657c-.018-.641.114-1.574 0-2-.198-.735-.457-1.026-.625-1.562-.135-.43-.281-1.313-.281-1.313-3.071-1.556-3.75-4.12-3.782-6.437-.042-3.057-.504-4.79-2.437-6.64.676-.122 1.376-.024 1.968-.016 3.694.045 6.718-1.848 7.62-4.63.601-1.856.608-3.938-.124-5.527-1.05-2.277-2.159-3.26-4.277-5-2.387-1.962-7.9-4.149-9.375-6.437-1.58-2.45-1.12-4.963.188-6.406 1.283-1.416 3.386-2.083 5.656-.125 1.362 1.174 2.189 2.842 3.313 3.875 1.31 1.204 3.596 2.199 5.562.937 2.04-1.31 2.31-3.244 2.111-4.89.343-1.352 1.52-2.504 3.58-2.612-.655-1.374-3.66-2.763-4.935.112-1.533-2.287-4.461-1.176-5.01 1.001 1.532-.352 3.212.182 4.365 1.748z" transform="matrix(2.8536 0 0 2.5996 -719.014 -729.591)"/><path d="M210.593 122.825c3.768-.662 7.936 1.706 12 3.195 2.421.888 4.602.595 5.41 1.146l-3.668.664 4.577 8.053c-2.173-4.014-14.229-12.179-18.32-13.058m-9.142 22.513c.952 6.894 3.214 12.207 7.223 16.167s9.616 6.507 16.943 8.123c-2.536-3.72-10.998-6.503-14.803-9.83-5.13-4.485-6.1-12.108-9.363-14.46m21.827 44.671c1.103-2.193 3.188-4.826 3.56-7.697.37-2.87.15-5.797-1.26-7.973-1.732 1.1-3.092 15.235-2.3 15.67m-25.213-48.243c1.573-2.48-2.064-5.068-4.11-5.662s-4.89.438-5.691 2.786c2.772-1.96 7.65-.207 9.8 2.876m-46.887-2.146c1.41 5.033 16.953 11.572 20.104 10.043l4.49-2.569c-5.605 2.834-20.29-2.573-24.594-7.474m-7.708 1.113c-.236 4.09 17.403 13.912 21.52 13.224l4.628-2.356c-6.088 3.186-25.992-8.29-26.148-10.868m-4.074 4.86c.774 5.146 15.035 13.25 18.357 12.055l4.78-2.087c-7.443 1.743-20.232-4.927-23.137-9.968m-4.436 4.709c-.362 3.932 8.847 10.214 13.175 10.988l4.99-1.63c-6.284.986-16.375-5.294-18.165-9.358m-7.024 1.126c-.507 3.35 7.278 11.811 10.757 12.11l5.182-1.018c-5.013 1.273-15.426-8.629-15.939-11.092m-4.088 5.126c-.203 1.838 2.125 6.784 5.628 8.386l5.276-.468c-6.722-.716-10.281-6.693-10.904-7.918m-6.255 2.899c.026 1.923.596 4.981 3.264 6.561l5.297-.184c-5.442-1.036-7.953-5.21-8.56-6.377zm-25.651 6.924c.495 2.829 5.11 2.748 7.108 2.033 2-.714 3.493-3.149 2.49-5.43-.795 3.113-5.795 4.553-9.598 3.397m.117 6.58c.495 2.828 5.11 2.748 7.108 2.033 2-.714 3.493-3.149 2.49-5.43-.795 3.113-5.795 4.553-9.598 3.396M79.634 192.94c2.162-1.393 5.415-2.719 7.316-5.033 1.902-2.314 3.321-4.947 3.3-7.474-2.104.16-11.061 11.77-10.616 12.507m130.836 1.877s-4.212-.225-6.689.163c-1.638.257-3.253.846-4.637 1.787-1.584 1.077-3.492 2.455-4.013 4.55-.23.928.046 1.873.268 2.6.222.726.446 1.299.446 1.299l1.872-.731s-.263-.46-.446-1.056c-.182-.596-.26-1.375-.178-1.706.324-1.303 1.731-2.488 3.21-3.494 3.523-2.774 6.935-1.943 10.166-3.412zm-144.03-1.792s-4.212-.226-6.688.162c-1.638.257-3.253.847-4.637 1.788-1.584 1.077-3.493 2.455-4.013 4.549-.23.928.045 1.873.267 2.6.223.726.446 1.3.446 1.3l1.873-.732s-.263-.46-.446-1.056-.26-1.374-.178-1.706c.323-1.302 1.73-2.487 3.21-3.493 3.523-2.775 6.934-1.944 10.166-3.412"/><path fill="#ffbb26" stroke="#000" d="m257.418 208.83-.908.523c-6.177 2.38-10.934 2.3-17.148 0l-.884 2.492c-.706 2.819-.318 5.302.648 7.307.59-.28 1.179-.888 1.768-1.473.291.973.16 2.358 1.179 3.476 1.154-.648 1.87-1.532 2.298-2.18.197 1.332.704 2.342 1.724 3.064 1.02-.722 1.527-1.732 1.724-3.064.427.648 1.143 1.768 2.298 2.416 1.018-1.119 1.005-1.796 1.326-2.908.515 1.158 1.173 1.747 2.327 2.395 1.018-1.119.888-2.503 1.179-3.476.488.787 1.106 1.337 1.768 1.473.505-.723.873-1.88.868-2.928.95.745 1.833.967 2.432 1.016.239-1.363.188-2.416-.007-3.63.895.308 1.067.588 2.167.59.736-2.701-.139-5.625-2.699-7.696z" transform="matrix(2.8536 0 0 2.5996 -609.877 -414.262)"/><path d="m137.157 141.64-4.183-.25-1.356 2.525c-.073-3.427-2.09-6.513-2.483-8.367.944 1.955 3.83 4.184 8.022 6.093m-7.904 7.384-3.514-1.26-1.694 2.35c.401-3.407-.197-8.99-.33-10.874.666 2.048 2.437 7.383 5.538 9.784m-9.258 3.814-2.075-1.26-1.694 2.35c.401-3.407-.327-10.181-.461-12.066.666 2.048 2.96 8.694 4.23 10.976m-10.074 2.98-2.075-1.26-1.694 2.35c.401-3.408.588-9.467.455-11.352.666 2.049 2.045 7.98 3.314 10.262m-10.336 1.132-2.074-1.26-1.694 2.35c.4-3.407.588-9.466.454-11.351.667 2.048 2.045 7.979 3.314 10.261m-14.627.358 2.075-1.26 1.693 2.35c-.4-3.408-.588-7.679-.454-9.564-.666 2.048-2.045 6.191-3.314 8.474m-9.766-3.738 2.075-1.26 1.694 2.35c-.4-3.408-.588-7.679-.454-9.564-.667 2.048-2.045 6.191-3.315 8.474"/><path fill="#ffbb26" stroke="#000" d="M237.648 201.036s-2.279 4.002-2.734 6.067c-.295 1.336-.257 3.418-.257 3.418.74-.047 1.481-.21 2.222-.94.077 1.139-.037 2.278.684 3.418.74-.286 1.652-.662 2.392-2.051.057 1.417.32 2.252 1.111 3.589.97-.31 1.732-1.465 2.478-2.222.016 1.033.274 2.188 1.196 3.674 1.212-.726 1.916-2.406 2.197-3.359.307.9.985 2.633 2.197 3.36.922-1.487 1.18-2.642 1.196-3.675.746.757 1.508 1.912 2.478 2.222.791-1.337 1.054-2.172 1.11-3.59.741 1.39 1.653 1.766 2.393 2.052.72-1.14.607-2.28.684-3.418.74.73 1.755 1.362 2.495 1.409.148-.148.727-2.145.448-3.34.87.755 1.615 1.259 2.9 1.222.21-1.103.03-2.207-.185-3.208 1.397.528 2.91.672 3.991.103-2.52-4.683-6.507-5.448-10.884-6.256-4.96 4.51-10.908 5.35-18.112 1.525z" transform="matrix(2.8536 0 0 2.5996 -609.877 -414.262)"/><path d="m143.066 121.51-2.478-.245-.313 2.797c-1.37-3.193-3.475-7.692-4.548-9.308 1.043 1.893 6.422 6.189 10.226 6.756zm-7.667 6.093-3.309-1.89.364 4.294c-1.17-3.257-2.994-7.857-3.966-9.526 1.531 1.618 4.724 5.516 6.91 7.122m-8.618 5.808-2.903-2.38-.452 4.287c-.539-3.392-1.467-8.209-2.11-10.005 1.204 1.834 3.614 6.173 5.465 8.098m-9.398 3.148-2.234-1.008-1.35 2.528c-.08-3.427-.355-8.311-.751-10.165.947 1.954 2.757 6.529 4.335 8.645M96.75 140.93l-1.913-1.457-1.963 2.17c.804-3.35 1.792-8.407 1.884-10.294.419 2.102 1.001 7.187 1.992 9.581m10.324-1.365-2.234-1.008-1.352 2.527c-.079-3.427-.354-8.31-.75-10.165.948 1.954 2.757 6.53 4.336 8.646m-24.68.5 2.234-1.008 1.35 2.528c.08-3.427.355-8.31.751-10.165-.948 1.954-2.757 6.53-4.336 8.646m-10.227-3.374 2.234-1.008 1.35 2.527c.08-3.426.905-9.563 1.301-11.417-.947 1.954-3.307 7.782-4.885 9.898m-8.7-4.767 2.35-.76 1.013 2.655c.524-3.394 1.487-7.577 2.122-9.376-1.195 1.838-3.642 5.55-5.484 7.48"/><path fill="#ffbb26" stroke="#000" d="M257.115 197.057c.795.24 1.12-.043 2.038.093-.491-2.096-.635-2.84-2.296-4.253 1.226.354 1.412.026 2.19.107-1.728-3.151-1.412-6.343-3.994-7.973.808-2.143.28-2.578-.422-4.521-.175-.486-.085-1.546-.085-1.546s-2.211.452-3.007 1.437a40 40 0 0 0-1.039 1.366c.182-1.193.062-1.718-.859-2.492-.387.53-.826 1.715-1.288 2.177-.158-1.078-.37-2.004-1.26-2.695-.778.747-1.223 1.585-1.26 2.695-.463-.462-.903-1.648-1.29-2.177-.92.774-1.04 1.299-.858 2.492 0 0-.58-.799-1.04-1.366-.795-.985-3.006-1.437-3.006-1.437s.025 1.042-.086 1.546c-.256 1.168-1.512 2.679-.421 4.52-3.13 2.178-2.449 5.097-4.178 8.247.779-.08.928.342 2.153-.013-1.66 1.414-1.777 1.7-2.269 3.797.604-.24 1.115-.048 2.29-.376-.4.934-1.259 1.618-1.738 2.06-1.183 1.095-1.669 2.193-1.962 3.459.776.01 1.551-.264 2.327-.482-.266 1.01-.398 1.753-.08 3.209 1.163-.468 1.74-.96 2.486-1.444-.096.936-.147 2.032.16 2.968.776-.227 1.551-.736 2.326-1.604-.018 1.22.317 2.09.722 2.887.713-.446 1.43-.888 2.006-1.444.231.868.286 1.617 1.123 2.888 1.277-.57 1.538-1.394 2.005-2.166.177.713.494 1.496 1.428 2.587 1.221-.883 1.16-1.767 1.504-2.65.278.634.87 1.754 1.79 2.22.696-.788.804-1.862 1.003-2.506.627.78 1.356 1.46 2.363 1.862.524-1.05.541-1.931.501-2.793.884 1.018 1.767 1.305 2.65 1.575.22-.955.16-1.91 0-2.864.931.731 1.862 1.081 2.793.859.047-1.053-.26-1.842-.573-2.721.937.178 1.831.272 2.578.071 0 0-.51-1.253-1.145-1.862-.82-.784-1.928-1.358-2.744-2.145-.473-.455-1.536-1.592-1.536-1.592z" transform="matrix(2.8536 0 0 2.5996 -609.877 -414.262)"/><path d="M76.428 55.408s.19 1.89-.09 2.844c-.54 1.839-1.5 3.379-1.605 5.28-.07 1.297 1.338 3.737 1.338 3.737s.916-2.992 2.408-3.574c1.485-.58 4.548.812 4.548.812s-.198-2.761-.625-3.818c-.956-2.372-5.974-5.28-5.974-5.28zm37.275 0s-5.019 2.91-5.975 5.28c-.426 1.058-.624 3.819-.624 3.819s3.062-1.393 4.548-.812c1.492.582 2.407 3.574 2.407 3.574s1.409-2.44 1.338-3.737c-.104-1.901-.976-3.441-1.516-5.28-.28-.954-.178-2.844-.178-2.844M74.912 71.412c-2.226 1.36-3.007 3.66-2.408 5.687.46 1.555 1.916 2.766 3.834 3.493-.097.083-.077.07-.178.162-.76.69-1.636 1.61-1.962 2.763-1.357 4.799-.47 9.477 2.497 12.51-1.568 2.1-4.507 6.78-5.796 9.424 2.588-2.105 5.247-5.906 7.223-8.205.877.633 1.873 1.121 2.943 1.543-1.1 2.086-3.298 7.599-4.102 10.561 2.34-2.708 4.409-7.468 5.974-9.91.77.203 1.59.295 2.408.405-.61 1.75-.389 3.59.624 5.118-1.106 1.977-3.42 7.718-4.28 10.724 2.211-2.496 4.156-6.715 5.707-9.261.893.715 1.982 1.26 3.3 1.624-.498 2.545-1.065 7.87-1.07 10.724 1.455-2.922 2.23-7.499 3.031-10.318.553.063 1.094.163 1.695.163.347 0 .65-.06.98-.081.56 2.877.942 7.37 2.14 10.317.213-2.785.107-7.926-.177-10.56a10.4 10.4 0 0 0 2.675-.976c1.262 2.652 2.683 7.3 4.637 10.074-.504-3.111-2.086-9.21-2.943-11.211.242-.219.51-.407.714-.65 1.067-1.277 1.439-2.884 1.248-4.468 2.655 2.166 7 6.018 9.898 7.718-1.72-2.42-6.462-7.17-8.65-9.18 2.25-.48 4.345-1.276 5.975-2.519 2.522 2.095 7.655 8.073 10.79 9.911-1.823-2.564-7.51-9.361-9.452-11.21 2.8-3.037 3.643-7.581 2.318-12.267-.326-1.154-1.201-2.072-1.961-2.762-.101-.092-.082-.08-.179-.163 1.919-.727 3.375-1.938 3.835-3.493.598-2.026-.183-4.328-2.408-5.687.627 1.787 1.09 3.208.535 5.28-.355 1.324-1.634 2.474-3.924 2.763l-2.497.325 2.051 1.3s.516.39 1.16.974c.644.585 1.365 1.418 1.516 1.95 1.221 4.32 0 7.977-2.586 10.561-2.587 2.584-6.688 4.377-11.326 3.737-3.214-.444-3.303-1.176-3.3-3.818.601-.062 1.349-.218 2.052-.569.638-.319.895-.658 1.16-.975.263-.317.479-.545.534-.568.837-.361 2.14-.244 2.14-.244l1.07.244.09-1.057c.071-.916.292-1.502-.446-3-.6-1.214-1.511-1.945-2.14-2.355-.315-.205-.498-.3-.625-.406-.126-.108-.155-.155-.178-.244-.821-3.04-1.076-5.673-.267-8.211.483-1.52 2.137-2.803 4.28-3.087 2.308-.306 5.122.34 6.42.569-1.28-1.46-3.778-2.868-6.955-2.356-2.602.419-4.958 2.033-5.707 4.387-.925 2.903-.58 5.97.267 9.104.128.473.406.876.713 1.137.308.262.618.472.892.65.548.357 1.089.677 1.516 1.544.367.744.224.72.179 1.375-.642-.048-1.035-.519-2.051-.081-.675.29-1.047.787-1.338 1.137s-.552.622-.446.569c-.278.138-.867.276-1.338.325-.47.048-.891 0-.891 0s-.422.048-.892 0c-.47-.049-1.06-.187-1.338-.325.106.053-.154-.219-.446-.569-.291-.35-.662-.847-1.337-1.137-1.016-.438-1.41.033-2.051.081-.046-.656-.189-.631.178-1.375.428-.867.968-1.187 1.516-1.544a9 9 0 0 0 .892-.65 2.3 2.3 0 0 0 .713-1.137c.847-3.133 1.192-6.201.268-9.104-.75-2.354-3.106-3.968-5.708-4.387-3.177-.512-5.675.897-6.955 2.356 1.299-.23 4.112-.875 6.42-.569 2.143.284 3.797 1.568 4.28 3.087.809 2.538.555 5.171-.267 8.211-.022.09-.051.136-.178.244s-.31.2-.624.406c-.63.41-1.542 1.141-2.14 2.356-.739 1.497-.518 2.083-.446 3l.089 1.056 1.07-.244s1.303-.117 2.14.244c.055.023.27.25.535.568.264.317.52.656 1.16.975.703.351 1.45.507 2.05.569.194 2.798-.298 3.325-3.3 3.818-4.616.758-8.738-1.153-11.324-3.737s-3.808-6.241-2.586-10.56c.15-.533.871-1.366 1.516-1.95a19 19 0 0 1 1.159-.975l2.05-1.3-2.496-.325c-2.29-.289-3.57-1.439-3.924-2.762-.555-2.073-.092-3.494.535-5.28zm9.987 4.63q-1.156.013-2.764.732c.368 2.072 2.769 4.818 6.866 2.6-.653-1.59-1.79-3.354-4.102-3.331m18.905 0c-2.311-.023-3.448 1.741-4.102 3.331 4.098 2.219 6.499-.527 6.867-2.6q-1.608-.718-2.765-.73m-9.452 22.585c.258.145.518.289 1.16.568.893.39 1.924.725 3.031.813.965.076 1.91.12 2.854.08.641 1.409.408 2.422-.625 3.657-1.135 1.357-3.238 2.355-6.42 2.355s-5.375-.998-6.51-2.355c-1.032-1.235-1.19-2.248-.535-3.656.944.04 1.89-.005 2.854-.081 1.106-.088 2.138-.423 3.032-.813.64-.279.9-.423 1.159-.568m-24.88 3.9c-3.352 2.36-6.348 6.873-9.81 7.96l3.122-.406.357 3.006c1.655-6.48 4.996-6.143 6.331-10.56m6.153 1.299c-2.938 2.78-6.024 10.731-9.274 12.267l3.032-.894.802 2.925c.602-6.63 4.826-9.75 5.44-14.298m48.333 1.137c.904 3.708 6.85 5.01 8.382 10.724l.357-2.925 3.656.163c-6.602-2.925-6.57-3.55-12.395-7.962m-6.867.325c.144 3.797 7.935 9.4 8.294 15.273l.98-2.762 2.854 1.218c-3.637-3.026-9.41-11.52-12.128-13.729m-37.275 4.793c-2.368 3.2-3.331 7.97-6.242 9.992l2.764-1.3 1.427 2.763c-.663-6.625 2.308-6.878 2.051-11.455m33.263.244c-.157 3.796 5.016 6.977 4.012 13.567l1.516-2.681 2.765 1.462c-2.804-2.146-5.757-9.968-8.293-12.348m-6.243 1.137c-1.007 4.49 3.263 8.082 1.516 14.542l1.784-2.6 2.586 1.706c-2.545-2.398-4.072-10.16-5.886-13.648m-20.867 2.6c-1.813 3.488-1.557 8.081-4.102 10.48l2.586-1.707 1.784 2.519c-1.747-6.46.74-6.803-.268-11.292m14.09.568c-1.378 4.407 2.28 5.866 0 12.186l2.051-2.356 2.319 1.787c-2.338-2.567-2.852-8.013-4.37-11.617m-6.153 2.6c-1.518 3.603-.427 6.45-2.765 9.017l2.408-1.868 1.962 2.437c-2.28-6.32-.226-5.179-1.605-9.586"/></g></g></svg>